<?xml version="1.0" encoding="utf-8"?>
<!-- Generator: Adobe Illustrator 19.0.0, SVG Export Plug-In . SVG Version: 6.00 Build 0)  -->
<svg version="1.1" id="Calque_1" xmlns="http://www.w3.org/2000/svg" xmlns:xlink="http://www.w3.org/1999/xlink" x="0px" y="0px"
	 viewBox="100 -160 400 400" style="enable-background:new 100 -160 400 400;" xml:space="preserve">
<style type="text/css">
	.st0{fill:url(#XMLID_4_);}
	.st1{fill:none;stroke:#FFFFFF;stroke-width:6.7551;stroke-miterlimit:10;}
	.st2{fill:none;stroke:#FFFFFF;stroke-width:3.2831;stroke-miterlimit:10;}
	.st3{fill:none;stroke:#FFFFFF;stroke-width:1.6415;stroke-miterlimit:10;}
	.st4{fill:#FFFFFF;}
</style>
<linearGradient id="XMLID_4_" gradientUnits="userSpaceOnUse" x1="99.825" y1="240.525" x2="500.175" y2="-159.825" gradientTransform="matrix(1 0 0 -1 0 80)">
	<stop  offset="0" style="stop-color:#3C275A"/>
	<stop  offset="7.735384e-02" style="stop-color:#4A275A"/>
	<stop  offset="0.3778" style="stop-color:#7A2559"/>
	<stop  offset="0.6426" style="stop-color:#9D2458"/>
	<stop  offset="0.859" style="stop-color:#B22358"/>
	<stop  offset="1" style="stop-color:#BA2358"/>
</linearGradient>
<rect id="XMLID_3_" x="100" y="-160.7" class="st0" width="400" height="400.7"/>
<path id="XMLID_2_" class="st1" d="M746.1-110.9"/>
<path id="XMLID_101_" class="st2" d="M405,95.9c-19.6,45.2-64.5,76.8-116.9,76.8c-70.3,0-127.3-57-127.3-127.3
	c0-18.2,3.8-35.5,10.7-51.1c19.7-44.9,64.5-76.2,116.6-76.2c30.1,0,57.8,10.4,79.5,27.9 M100-41.4l69.9,35.7 M373.7-115.2l-23,50.1
	 M229.5,193.4l12.7-28.9 M401.1,105.5l98.5,42.8"/>
<path id="XMLID_100_" class="st3" d="M361.2,126.3c-19.3,17.5-45,28.1-73.1,28.1c-60.2,0-109-48.8-109-109s48.8-109,109-109
	c31.4,0,59.7,13.3,79.5,34.5"/>
<path id="XMLID_34_" class="st4" d="M240.4-13.5c0.2,0.1,0.2,0.3,0.2,0.6c0,0.2-0.1,0.4-0.2,0.6c-0.2,0.2-0.3,0.2-0.6,0.2h-9.5
	c-0.2,0-0.4-0.1-0.6-0.2c-0.2-0.2-0.2-0.3-0.2-0.6V-30c0-0.2,0.1-0.4,0.2-0.6s0.4-0.2,0.6-0.2c0.2,0,0.4,0.1,0.6,0.2
	s0.2,0.3,0.2,0.6v16.3h8.7C240.1-13.7,240.3-13.6,240.4-13.5z M256.3-25.5c0.2,0.2,0.2,0.4,0.2,0.6v12c0,0.2-0.1,0.4-0.2,0.6
	c-0.2,0.2-0.3,0.2-0.6,0.2c-0.2,0-0.4-0.1-0.6-0.2c-0.2-0.2-0.2-0.3-0.2-0.6v-1.8c-0.4,0.8-1.1,1.5-2,2c-0.9,0.6-1.9,0.8-2.9,0.8
	c-1.2,0-2.3-0.3-3.2-0.9c-1-0.6-1.7-1.5-2.2-2.6s-0.8-2.3-0.8-3.7s0.3-2.6,0.8-3.6c0.6-1.1,1.3-1.9,2.3-2.5c1-0.6,2-0.9,3.2-0.9
	c1.1,0,2,0.3,2.9,0.8c0.9,0.5,1.6,1.2,2,2v-1.7c0-0.2,0.1-0.4,0.2-0.6c0.2-0.2,0.3-0.2,0.6-0.2C256-25.7,256.2-25.7,256.3-25.5z
	 M252.7-14.1c0.7-0.5,1.3-1.2,1.7-2c0.4-0.9,0.6-1.8,0.6-2.9c0-1-0.2-2-0.6-2.8c-0.4-0.9-1-1.5-1.7-2c-0.7-0.5-1.6-0.7-2.5-0.7
	c-0.9,0-1.8,0.2-2.5,0.7c-0.7,0.5-1.3,1.1-1.7,2c-0.4,0.8-0.6,1.8-0.6,2.9c0,1.1,0.2,2,0.6,2.9c0.4,0.9,1,1.5,1.7,2
	c0.7,0.5,1.6,0.7,2.5,0.7C251.1-13.3,252-13.6,252.7-14.1z M246.4-0.6c1.3,0.8,2.4,2,3.2,3.4c0.8,1.4,1.2,3,1.2,4.8
	c0,1.7-0.4,3.3-1.2,4.8c-0.8,1.5-1.8,2.6-3.2,3.5c-1.3,0.9-2.8,1.3-4.3,1.3h-8.3v9.7c0,0.6-0.2,1.1-0.6,1.5
	c-0.4,0.4-0.9,0.6-1.5,0.6c-0.6,0-1.1-0.2-1.5-0.6c-0.4-0.4-0.6-0.9-0.6-1.5V0.3c0-0.6,0.2-1.1,0.6-1.5c0.4-0.4,0.9-0.6,1.5-0.6
	h10.2C243.7-1.8,245.1-1.4,246.4-0.6z M244.3,12.4c0.7-0.5,1.2-1.2,1.6-2.1c0.4-0.9,0.6-1.8,0.6-2.7c0-1.5-0.4-2.8-1.3-3.8
	c-0.9-1-1.9-1.6-3.1-1.6h-8.3v10.9h8.3C242.9,13.1,243.6,12.9,244.3,12.4z M276.9,25.5c0.4,0.4,0.6,0.9,0.6,1.5
	c0,0.6-0.2,1.1-0.6,1.5c-0.4,0.4-0.9,0.6-1.5,0.6h-14.9c-0.6,0-1.1-0.2-1.5-0.6c-0.4-0.4-0.6-0.9-0.6-1.5V0.3c0-0.6,0.2-1.1,0.6-1.5
	c0.4-0.4,0.9-0.6,1.6-0.6c0.6,0,1.1,0.2,1.5,0.6c0.4,0.4,0.6,0.9,0.6,1.5v24.6h12.6C276,24.9,276.5,25.1,276.9,25.5z M308.7,27.1
	c0,0.6-0.2,1.1-0.6,1.5c-0.4,0.4-0.9,0.6-1.4,0.6c-0.4,0-0.8-0.1-1.1-0.4c-0.3-0.3-0.6-0.6-0.8-1l-2.7-6.5h-13.6l-2.7,6.5
	c-0.1,0.4-0.4,0.8-0.7,1c-0.3,0.2-0.7,0.4-1.1,0.4c-0.6,0-1.1-0.2-1.4-0.5c-0.3-0.3-0.5-0.8-0.5-1.3c0-0.1,0-0.4,0.1-0.7l11.2-27.2
	c0.2-0.5,0.5-0.8,0.9-1.1S295-2,295.4-2c0.4,0,0.8,0.1,1.2,0.4c0.4,0.2,0.6,0.6,0.8,1l11.2,26.9C308.7,26.5,308.7,26.8,308.7,27.1z
	 M290.1,17.2h10.3l-5.2-12.3L290.1,17.2z M338.2,1.7c0,0.5-0.2,1-0.5,1.5c-0.4,0.5-0.8,0.7-1.5,0.7c-0.4,0-0.8-0.1-1.2-0.3
	c-1.8-1-3.8-1.5-5.9-1.5c-2.2,0-4.2,0.5-5.8,1.5s-3,2.3-3.9,4.1c-0.9,1.7-1.4,3.8-1.4,6c0,2.4,0.5,4.5,1.5,6.3c1,1.8,2.3,3.1,4,4
	c1.7,0.9,3.6,1.4,5.7,1.4c2.2,0,4.1-0.5,5.9-1.6c0.4-0.2,0.7-0.3,1.1-0.3c0.6,0,1.2,0.3,1.5,0.7c0.4,0.4,0.5,0.9,0.5,1.4
	c0,0.4-0.1,0.7-0.3,1c-0.2,0.3-0.4,0.5-0.8,0.7c-1.1,0.6-2.4,1.2-3.9,1.5c-1.4,0.4-2.8,0.6-4.2,0.6c-2.9,0-5.5-0.6-7.9-1.9
	c-2.4-1.3-4.3-3.1-5.7-5.5c-1.4-2.4-2.1-5.2-2.1-8.5c0-3,0.7-5.6,2.1-8c1.4-2.4,3.2-4.3,5.6-5.6c2.4-1.4,5.1-2.1,8-2.1
	c2.9,0,5.5,0.7,8,2.1C337.8,0.3,338.2,0.9,338.2,1.7z M364.4,25.6c0.4,0.4,0.6,0.9,0.6,1.5c0,0.6-0.2,1.1-0.6,1.4
	c-0.4,0.4-0.9,0.6-1.5,0.6h-15.3c-0.6,0-1.1-0.2-1.5-0.6c-0.4-0.4-0.6-0.9-0.6-1.5V0.3c0-0.6,0.2-1.1,0.6-1.5
	c0.4-0.4,0.9-0.6,1.5-0.6h15.3c0.6,0,1.1,0.2,1.5,0.6c0.4,0.4,0.6,0.9,0.6,1.5c0,0.6-0.2,1.1-0.6,1.4c-0.4,0.4-0.9,0.6-1.5,0.6
	h-13.1v9h11.1c0.6,0,1.1,0.2,1.5,0.6c0.4,0.4,0.6,0.9,0.6,1.5c0,0.6-0.2,1.1-0.6,1.5c-0.4,0.4-0.9,0.5-1.5,0.5h-11.1V25h13.1
	C363.5,25,364,25.2,364.4,25.6z M386.7,9.5c0.2,0.2,0.2,0.3,0.2,0.6v18.2c0,0.2-0.1,0.4-0.2,0.6c-0.2,0.2-0.3,0.2-0.6,0.2
	c-0.2,0-0.4-0.1-0.6-0.2c-0.2-0.2-0.2-0.3-0.2-0.6v-1.9c-0.4,0.8-1.1,1.5-2,2.1c-0.9,0.6-1.9,0.9-2.9,0.9c-1.2,0-2.2-0.3-3.2-0.9
	c-1-0.6-1.7-1.5-2.3-2.6c-0.6-1.1-0.8-2.3-0.8-3.7c0-1.3,0.3-2.5,0.8-3.6c0.6-1.1,1.3-1.9,2.3-2.6c1-0.6,2-0.9,3.2-0.9
	c1,0,2,0.3,2.9,0.8c0.9,0.5,1.6,1.2,2,2V10c0-0.2,0.1-0.4,0.2-0.6c0.2-0.2,0.3-0.2,0.6-0.2C386.3,9.2,386.5,9.3,386.7,9.5z
	 M383,27.1c0.7-0.5,1.3-1.2,1.7-2c0.4-0.9,0.6-1.8,0.6-2.9c0-1.1-0.2-2-0.6-2.9c-0.4-0.9-1-1.5-1.7-2c-0.7-0.5-1.6-0.7-2.5-0.7
	c-0.9,0-1.8,0.2-2.5,0.7c-0.7,0.5-1.3,1.2-1.7,2c-0.4,0.9-0.6,1.8-0.6,2.9c0,1.1,0.2,2,0.6,2.9c0.4,0.9,1,1.5,1.7,2
	c0.7,0.5,1.6,0.7,2.5,0.7C381.5,27.8,382.3,27.5,383,27.1z M403.6,15.7c0.2,0.2,0.2,0.3,0.2,0.6v7.5c0,1.7-0.5,3.1-1.5,4
	c-1,0.9-2.3,1.4-4.1,1.4c-1.7,0-3-0.5-4-1.4c-1-0.9-1.5-2.3-1.5-4v-7.5c0-0.2,0.1-0.4,0.2-0.6c0.2-0.2,0.3-0.2,0.6-0.2
	s0.4,0.1,0.6,0.2c0.2,0.2,0.2,0.3,0.2,0.6v7.5c0,1.3,0.3,2.3,1,2.9c0.7,0.7,1.6,1,2.9,1c1.2,0,2.2-0.3,2.9-1c0.7-0.7,1-1.6,1-2.9
	v-7.5c0-0.2,0.1-0.4,0.2-0.6c0.2-0.2,0.3-0.2,0.6-0.2C403.3,15.4,403.5,15.5,403.6,15.7z M328.3,95.2c-0.2-0.2-0.2-0.4-0.2-0.8v-0.6
	c0-0.3,0.1-0.6,0.2-0.7s0.4-0.3,0.7-0.3h0.2c0.3,0,0.5,0.1,0.7,0.3c0.2,0.2,0.2,0.4,0.2,0.7v0.6c0,0.3-0.1,0.6-0.2,0.8
	c-0.2,0.2-0.4,0.3-0.7,0.3h-0.2C328.6,95.5,328.4,95.4,328.3,95.2z M343.1,81.8c0.7,0.2,1.3,0.4,1.7,0.8c0.4,0.3,0.7,0.7,0.7,1
	c0,0.2-0.1,0.4-0.2,0.5c-0.1,0.2-0.3,0.2-0.5,0.2c-0.2,0-0.3,0-0.4-0.1c-0.1-0.1-0.2-0.2-0.4-0.3c-0.2-0.2-0.5-0.4-0.7-0.5
	c-0.3-0.1-0.6-0.2-1.1-0.3c-0.4-0.1-0.9-0.1-1.4-0.1c-1,0-1.9,0.2-2.7,0.7s-1.4,1.2-1.9,2c-0.5,0.9-0.7,1.8-0.7,2.8
	c0,1.1,0.2,2,0.7,2.9c0.4,0.9,1.1,1.5,1.9,2c0.8,0.5,1.7,0.7,2.7,0.7c0.6,0,1.2-0.1,1.5-0.2c0.4-0.1,0.8-0.3,1.1-0.5
	c0.1-0.1,0.3-0.2,0.6-0.5c0.1-0.1,0.3-0.2,0.4-0.3c0.1-0.1,0.2-0.1,0.3-0.1c0.2,0,0.4,0.1,0.5,0.2c0.1,0.1,0.2,0.3,0.2,0.5
	c0,0.3-0.2,0.6-0.6,1c-0.4,0.3-1,0.6-1.8,0.9c-0.7,0.3-1.6,0.4-2.5,0.4c-1.3,0-2.5-0.3-3.5-0.9s-1.8-1.5-2.4-2.6
	c-0.6-1.1-0.8-2.3-0.8-3.7c0-1.3,0.3-2.5,0.9-3.6c0.6-1.1,1.4-1.9,2.4-2.6c1-0.6,2.2-1,3.6-1C341.6,81.5,342.4,81.6,343.1,81.8z
	 M361.7,92.3c-0.6,1.1-1.4,1.9-2.4,2.6c-1,0.6-2.2,0.9-3.4,0.9c-1.3,0-2.4-0.3-3.4-0.9s-1.8-1.5-2.4-2.6c-0.6-1.1-0.9-2.3-0.9-3.6
	c0-1.3,0.3-2.5,0.9-3.6c0.6-1.1,1.4-1.9,2.4-2.6c1-0.6,2.2-0.9,3.4-0.9c1.3,0,2.4,0.3,3.4,0.9c1,0.6,1.8,1.5,2.4,2.6
	c0.6,1.1,0.9,2.3,0.9,3.6C362.6,90,362.3,91.2,361.7,92.3z M360.3,85.8c-0.4-0.9-1.1-1.5-1.9-2c-0.8-0.5-1.7-0.7-2.6-0.7
	c-1,0-1.8,0.2-2.6,0.7c-0.8,0.5-1.4,1.2-1.9,2c-0.5,0.9-0.7,1.8-0.7,2.9c0,1.1,0.2,2,0.7,2.9c0.5,0.9,1.1,1.5,1.9,2
	c0.8,0.5,1.7,0.7,2.6,0.7c1,0,1.8-0.2,2.6-0.7c0.8-0.5,1.4-1.1,1.9-2c0.4-0.9,0.7-1.8,0.7-2.9C361,87.6,360.7,86.6,360.3,85.8z
	 M386.2,83.2c0.8,1,1.1,2.3,1.1,3.9v7.6c0,0.2-0.1,0.4-0.2,0.6c-0.2,0.2-0.3,0.2-0.6,0.2c-0.2,0-0.4-0.1-0.6-0.2
	c-0.2-0.2-0.2-0.3-0.2-0.6v-7.5c0-1.2-0.3-2.1-0.8-2.9c-0.6-0.7-1.4-1.1-2.6-1.1c-0.7,0-1.5,0.2-2.1,0.5c-0.7,0.4-1.2,0.8-1.6,1.5
	c-0.4,0.6-0.6,1.3-0.6,2v7.5c0,0.2-0.1,0.4-0.2,0.6c-0.2,0.2-0.3,0.2-0.6,0.2c-0.2,0-0.4-0.1-0.6-0.2c-0.2-0.2-0.2-0.3-0.2-0.6v-7.6
	c0-1.2-0.3-2.1-0.8-2.8c-0.5-0.7-1.4-1.1-2.5-1.1c-0.7,0-1.4,0.2-2.1,0.5c-0.7,0.4-1.2,0.8-1.6,1.4c-0.4,0.6-0.6,1.2-0.6,1.9v7.6
	c0,0.2-0.1,0.4-0.2,0.6c-0.2,0.2-0.3,0.2-0.6,0.2c-0.2,0-0.4-0.1-0.6-0.2c-0.2-0.2-0.2-0.3-0.2-0.6v-12c0-0.2,0.1-0.4,0.2-0.6
	c0.2-0.2,0.3-0.2,0.6-0.2c0.2,0,0.4,0.1,0.6,0.2c0.2,0.2,0.2,0.3,0.2,0.6v1.6c0.5-0.7,1.1-1.3,1.9-1.8c0.8-0.5,1.7-0.7,2.6-0.7
	c1,0,1.9,0.3,2.7,0.7c0.7,0.5,1.3,1.2,1.6,2.2c0.4-0.8,1.1-1.5,2.1-2.1c1-0.6,2-0.9,3-0.9C384.3,81.7,385.5,82.2,386.2,83.2z
	 M200.5,70c-1.6-0.6-3.2-1.6-4.7-2.9c-0.6-0.5-0.9-1.1-0.9-1.8c0-0.5,0.2-1,0.6-1.4c0.4-0.4,0.9-0.6,1.5-0.6c0.5,0,0.9,0.2,1.3,0.5
	c1.2,1.1,2.4,1.9,3.6,2.4c1.2,0.5,2.7,0.8,4.3,0.8c1.9,0,3.4-0.4,4.7-1.3c1.3-0.9,1.9-1.9,1.9-3.2c0-1.5-0.7-2.7-1.9-3.5
	c-1.2-0.8-3.2-1.5-5.7-2.1c-3-0.6-5.4-1.6-7-3c-1.6-1.4-2.4-3.4-2.4-5.9c0-1.7,0.5-3.3,1.4-4.6c0.9-1.3,2.2-2.3,3.8-3
	c1.6-0.7,3.4-1.1,5.5-1.1c1.8,0,3.5,0.3,5.2,0.9c1.6,0.6,2.9,1.4,3.9,2.3c0.7,0.6,1,1.2,1,1.9c0,0.5-0.2,1-0.6,1.4
	c-0.4,0.4-0.9,0.6-1.4,0.6c-0.4,0-0.8-0.1-1-0.4c-0.8-0.8-1.8-1.4-3.2-1.9c-1.4-0.5-2.6-0.8-3.9-0.8c-2,0-3.5,0.4-4.7,1.2
	c-1.2,0.8-1.7,1.9-1.7,3.2c0,1.4,0.6,2.5,1.7,3.3c1.2,0.8,2.9,1.4,5.2,1.9c2.3,0.5,4.2,1.1,5.6,1.8c1.5,0.7,2.6,1.6,3.4,2.8
	c0.8,1.2,1.2,2.8,1.2,4.7c0,1.7-0.5,3.2-1.4,4.5c-1,1.3-2.3,2.4-3.9,3.1c-1.6,0.7-3.5,1.1-5.4,1.1C204,70.9,202.1,70.6,200.5,70z
	 M241.3,40.8c1.3,0.8,2.4,2,3.2,3.4c0.8,1.4,1.2,3,1.2,4.8c0,1.7-0.4,3.3-1.2,4.8c-0.8,1.5-1.8,2.6-3.2,3.5
	c-1.3,0.9-2.8,1.3-4.3,1.3h-8.3v9.7c0,0.6-0.2,1.1-0.6,1.5c-0.4,0.4-0.9,0.6-1.5,0.6c-0.6,0-1.1-0.2-1.5-0.6
	c-0.4-0.4-0.6-0.9-0.6-1.5V41.7c0-0.6,0.2-1.1,0.6-1.5c0.4-0.4,0.9-0.6,1.5-0.6H237C238.6,39.6,240,40,241.3,40.8z M239.2,53.8
	c0.7-0.5,1.2-1.2,1.6-2.1c0.4-0.9,0.6-1.8,0.6-2.7c0-1.5-0.4-2.8-1.3-3.8c-0.9-1-1.9-1.6-3.1-1.6h-8.3v10.9h8.3
	C237.8,54.6,238.6,54.3,239.2,53.8z M272.3,67c0.4,0.4,0.6,0.9,0.6,1.5c0,0.6-0.2,1.1-0.6,1.4c-0.4,0.4-0.9,0.6-1.5,0.6h-15.3
	c-0.6,0-1.1-0.2-1.5-0.6c-0.4-0.4-0.6-0.9-0.6-1.5V41.7c0-0.6,0.2-1.1,0.6-1.5c0.4-0.4,0.9-0.6,1.5-0.6h15.3c0.6,0,1.1,0.2,1.5,0.6
	c0.4,0.4,0.6,0.9,0.6,1.5c0,0.6-0.2,1.1-0.6,1.4c-0.4,0.4-0.9,0.6-1.5,0.6h-13.1v9h11.1c0.6,0,1.1,0.2,1.5,0.6
	c0.4,0.4,0.6,0.9,0.6,1.5c0,0.6-0.2,1.1-0.6,1.5c-0.4,0.4-0.9,0.5-1.5,0.5h-11.1v9.7h13.1C271.4,66.4,271.9,66.6,272.3,67z
	 M303.7,43.1c0,0.5-0.2,1-0.5,1.5c-0.4,0.5-0.8,0.7-1.5,0.7c-0.4,0-0.8-0.1-1.2-0.3c-1.8-1-3.8-1.5-5.9-1.5c-2.2,0-4.2,0.5-5.8,1.5
	c-1.7,1-3,2.3-3.9,4.1c-0.9,1.7-1.4,3.8-1.4,6c0,2.4,0.5,4.5,1.5,6.3c1,1.8,2.3,3.1,4,4c1.7,0.9,3.6,1.4,5.7,1.4
	c2.2,0,4.1-0.5,5.9-1.6c0.4-0.2,0.7-0.3,1.1-0.3c0.6,0,1.2,0.3,1.5,0.7c0.4,0.4,0.5,0.9,0.5,1.4c0,0.4-0.1,0.7-0.3,1
	c-0.2,0.3-0.4,0.5-0.8,0.7c-1.1,0.6-2.4,1.2-3.9,1.5c-1.4,0.4-2.8,0.6-4.2,0.6c-2.9,0-5.5-0.6-7.9-1.9c-2.4-1.3-4.3-3.1-5.7-5.5
	c-1.4-2.4-2.1-5.2-2.1-8.5c0-3,0.7-5.6,2.1-8c1.4-2.4,3.2-4.3,5.6-5.6c2.4-1.4,5.1-2.1,8-2.1c2.9,0,5.5,0.7,8,2.1
	C303.4,41.8,303.7,42.3,303.7,43.1z M332.5,40.1c0.4,0.4,0.6,0.9,0.6,1.5s-0.2,1.1-0.6,1.5c-0.4,0.4-0.9,0.5-1.5,0.5h-7.8v24.7
	c0,0.6-0.2,1.1-0.6,1.5c-0.4,0.4-1,0.6-1.6,0.6c-0.6,0-1.2-0.2-1.6-0.6c-0.4-0.4-0.6-0.9-0.6-1.5V43.6h-7.8c-0.6,0-1.1-0.2-1.5-0.6
	c-0.4-0.4-0.6-0.9-0.6-1.5c0-0.6,0.2-1.1,0.6-1.4c0.4-0.4,0.9-0.6,1.5-0.6H331C331.6,39.6,332.1,39.8,332.5,40.1z M362,68.5
	c0,0.6-0.2,1.1-0.6,1.5c-0.4,0.4-0.9,0.6-1.4,0.6c-0.4,0-0.8-0.1-1.1-0.4c-0.3-0.3-0.6-0.6-0.8-1l-2.7-6.5h-13.6l-2.7,6.5
	c-0.1,0.4-0.4,0.8-0.7,1c-0.3,0.2-0.7,0.4-1.1,0.4c-0.6,0-1.1-0.2-1.4-0.5c-0.3-0.3-0.5-0.8-0.5-1.3c0-0.1,0-0.4,0.1-0.7l11.2-27.2
	c0.2-0.5,0.5-0.8,0.9-1.1c0.4-0.3,0.8-0.3,1.3-0.3c0.4,0,0.8,0.1,1.2,0.4c0.4,0.2,0.6,0.6,0.8,1l11.2,26.9C362,68,362,68.2,362,68.5
	z M343.4,58.7h10.3l-5.2-12.3L343.4,58.7z M391.5,43.1c0,0.5-0.2,1-0.5,1.5c-0.4,0.5-0.8,0.7-1.5,0.7c-0.4,0-0.8-0.1-1.2-0.3
	c-1.8-1-3.8-1.5-5.9-1.5c-2.2,0-4.2,0.5-5.8,1.5c-1.7,1-3,2.3-3.9,4.1c-0.9,1.7-1.4,3.8-1.4,6c0,2.4,0.5,4.5,1.5,6.3
	c1,1.8,2.3,3.1,4,4c1.7,0.9,3.6,1.4,5.7,1.4c2.2,0,4.1-0.5,5.9-1.6c0.4-0.2,0.7-0.3,1.1-0.3c0.6,0,1.2,0.3,1.5,0.7
	c0.4,0.4,0.5,0.9,0.5,1.4c0,0.4-0.1,0.7-0.3,1c-0.2,0.3-0.4,0.5-0.8,0.7c-1.1,0.6-2.4,1.2-3.9,1.5c-1.4,0.4-2.8,0.6-4.2,0.6
	c-2.9,0-5.5-0.6-7.9-1.9c-2.4-1.3-4.3-3.1-5.7-5.5c-1.4-2.4-2.1-5.2-2.1-8.5c0-3,0.7-5.6,2.1-8c1.4-2.4,3.2-4.3,5.6-5.6
	c2.4-1.4,5.1-2.1,8-2.1c2.9,0,5.5,0.7,8,2.1C391.2,41.8,391.5,42.3,391.5,43.1z M417.3,66.9c0.4,0.4,0.6,0.9,0.6,1.5
	c0,0.6-0.2,1.1-0.6,1.5c-0.4,0.4-0.9,0.6-1.5,0.6h-14.9c-0.6,0-1.1-0.2-1.5-0.6c-0.4-0.4-0.6-0.9-0.6-1.5V41.7
	c0-0.6,0.2-1.1,0.6-1.5c0.4-0.4,0.9-0.6,1.6-0.6c0.6,0,1.1,0.2,1.5,0.6c0.4,0.4,0.6,0.9,0.6,1.5v24.6h12.6
	C416.4,66.3,416.9,66.5,417.3,66.9z M444.2,67c0.4,0.4,0.6,0.9,0.6,1.5c0,0.6-0.2,1.1-0.6,1.4c-0.4,0.4-0.9,0.6-1.5,0.6h-15.3
	c-0.6,0-1.1-0.2-1.5-0.6c-0.4-0.4-0.6-0.9-0.6-1.5V41.7c0-0.6,0.2-1.1,0.6-1.5c0.4-0.4,0.9-0.6,1.5-0.6h15.3c0.6,0,1.1,0.2,1.5,0.6
	c0.4,0.4,0.6,0.9,0.6,1.5c0,0.6-0.2,1.1-0.6,1.4c-0.4,0.4-0.9,0.6-1.5,0.6h-13.1v9h11.1c0.6,0,1.1,0.2,1.5,0.6
	c0.4,0.4,0.6,0.9,0.6,1.5c0,0.6-0.2,1.1-0.6,1.5c-0.4,0.4-0.9,0.5-1.5,0.5h-11.1v9.7h13.1C443.3,66.4,443.8,66.6,444.2,67z"/>
</svg>
